#N canvas 120 142 1227 628 12;
#X obj 91 195 tgl 15 0 empty empty empty 17 7 0 10 -262144 -1 -1 0
1;
#X obj 226 242 s bela_setDigital @hv_param;
#X msg 221 186 in 11;
#X obj 217 162 loadbang;
#X obj 75 303 sel 1;
#X obj 74 345 s playnote;
#X msg 276 190 in 12;
#X obj 62 462 tgl 15 0 empty empty empty 17 7 0 10 -262144 -1 -1 0
1;
#X obj 60 493 change;
#X obj 64 427 bela_debounce;
#X obj 63 389 r bela_digitalIn12;
#X obj 181 572 print randomized;
#X obj 47 570 s random_table_rcv;
#X obj 68 532 sel 1;
#X obj 424 201 adc~ 3 4 5 6 7 8 9 10, f 36;
#X obj 550 414 snapshot~;
#X floatatom 550 438 5 0 0 0 - - -;
#X obj 550 494 s mod_amount_rcv;
#X obj 548 468 * 400;
#X obj 698 410 snapshot~;
#X floatatom 698 434 5 0 0 0 - - -;
#X obj 729 169 metro 10;
#X obj 729 146 tgl 15 0 empty empty empty 17 7 0 10 -262144 -1 -1 0
1;
#X obj 142 688 samplerate~;
#X obj 698 490 s mod_index_rcv;
#X obj 696 464 * 3;
#X floatatom 912 445 5 0 0 0 - - -;
#X obj 332 420 snapshot~;
#X floatatom 332 444 5 0 0 0 - - -;
#X obj 326 552 s release_rcv;
#X obj 458 539 snapshot~;
#X floatatom 458 563 5 0 0 0 - - -;
#X floatatom 1021 416 5 0 0 0 - - -;
#X obj 1236 418 snapshot~;
#X floatatom 1236 442 5 0 0 0 - - -;
#X obj 1234 472 * 40;
#X obj 1236 499 s pitch_range_rcv;
#X obj 907 524 s crunch_rcv;
#X obj 897 400 snapshot~;
#X obj 1025 499 s pitch_offset_rcv;
#X obj 1019 446 * 100;
#X obj 1013 388 snapshot~;
#X obj 910 475 * 4;
#X obj 406 148 inlet;
#X obj 406 172 switch~;
#X obj 330 324 snapshot~;
#X floatatom 330 348 5 0 0 0 - - -;
#X obj 260 390 s volume_rcv;
#X obj 158 343 s stopnote;
#X obj 47 243 s tramp;
#X obj 114 217 key;
#X obj 109 242 sel 116;
#X msg 109 266 1;
#X obj 168 241 sel 116;
#X obj 173 216 keyup;
#X msg 167 264 0;
#X floatatom 328 524 15 0 0 0 - - -;
#X obj 327 501 exp;
#X obj 327 472 * 11;
#X obj 458 620 s feedback_rcv;
#X obj 457 593 * 2;
#X obj 131 -39 comport;
#X msg 162 -111 10;
#X msg 203 -111 11;
#X msg 271 -114 devices;
#X msg 94 -121 open 3;
#X msg 171 -150 72;
#X msg 213 -150 76;
#X obj 163 22 route digital0;
#X floatatom 163 46 5 0 0 0 - - -;
#X obj 85 16 list prepend;
#X obj 85 38 list trim;
#X floatatom 102 94 5 0 0 0 - - -;
#X obj 82 68 route digital0;
#X obj 85 -6 serial_print any;
#X obj 112 157 sel 0 1;
#X msg 44 163 1;
#X msg 137 185 0;
#X obj 103 125 change;
#X obj 97 -153 loadbang;
#X obj 279 -147 loadbang;
#X connect 0 0 49 0;
#X connect 0 0 4 0;
#X connect 2 0 1 0;
#X connect 3 0 2 0;
#X connect 3 0 6 0;
#X connect 4 0 5 0;
#X connect 4 1 48 0;
#X connect 6 0 1 0;
#X connect 7 0 8 0;
#X connect 8 0 13 0;
#X connect 9 0 7 0;
#X connect 10 0 9 0;
#X connect 13 0 12 0;
#X connect 13 0 11 0;
#X connect 14 0 45 0;
#X connect 14 1 27 0;
#X connect 14 2 30 0;
#X connect 14 3 15 0;
#X connect 14 4 19 0;
#X connect 14 5 38 0;
#X connect 14 6 41 0;
#X connect 14 7 33 0;
#X connect 15 0 16 0;
#X connect 16 0 18 0;
#X connect 18 0 17 0;
#X connect 19 0 20 0;
#X connect 20 0 25 0;
#X connect 21 0 15 0;
#X connect 21 0 27 0;
#X connect 21 0 30 0;
#X connect 21 0 33 0;
#X connect 21 0 19 0;
#X connect 21 0 38 0;
#X connect 21 0 41 0;
#X connect 21 0 45 0;
#X connect 22 0 21 0;
#X connect 25 0 24 0;
#X connect 26 0 42 0;
#X connect 27 0 28 0;
#X connect 28 0 58 0;
#X connect 30 0 31 0;
#X connect 31 0 60 0;
#X connect 32 0 40 0;
#X connect 33 0 34 0;
#X connect 34 0 35 0;
#X connect 35 0 36 0;
#X connect 38 0 26 0;
#X connect 40 0 39 0;
#X connect 41 0 32 0;
#X connect 42 0 37 0;
#X connect 43 0 44 0;
#X connect 43 0 22 0;
#X connect 45 0 46 0;
#X connect 46 0 47 0;
#X connect 50 0 51 0;
#X connect 51 0 52 0;
#X connect 52 0 0 0;
#X connect 53 0 55 0;
#X connect 54 0 53 0;
#X connect 55 0 0 0;
#X connect 56 0 29 0;
#X connect 57 0 56 0;
#X connect 58 0 57 0;
#X connect 60 0 59 0;
#X connect 61 0 74 0;
#X connect 61 1 68 0;
#X connect 62 0 61 0;
#X connect 63 0 61 0;
#X connect 64 0 61 0;
#X connect 65 0 61 0;
#X connect 66 0 61 0;
#X connect 67 0 61 0;
#X connect 68 0 69 0;
#X connect 70 0 71 0;
#X connect 71 0 73 0;
#X connect 72 0 78 0;
#X connect 73 0 72 0;
#X connect 74 0 70 0;
#X connect 74 1 70 1;
#X connect 75 0 76 0;
#X connect 75 0 66 0;
#X connect 75 1 77 0;
#X connect 75 1 67 0;
#X connect 76 0 0 0;
#X connect 77 0 0 0;
#X connect 78 0 75 0;
#X connect 80 0 64 0;
