#N canvas 143 291 1227 628 12;
#X obj 58 2 r bela_digitalIn11;
#X obj 57 75 tgl 15 0 empty empty empty 17 7 0 10 -262144 -1 -1 0 1
;
#X obj 192 122 s bela_setDigital @hv_param;
#X msg 187 66 in 11;
#X obj 183 42 loadbang;
#X obj 41 183 sel 1;
#X obj 40 225 s playnote;
#X obj 59 40 bela_debounce;
#X msg 242 70 in 12;
#X obj 28 342 tgl 15 0 empty empty empty 17 7 0 10 -262144 -1 -1 0
1;
#X obj 26 373 change;
#X obj 30 307 bela_debounce;
#X obj 29 269 r bela_digitalIn12;
#X obj 147 452 print randomized;
#X obj 13 450 s random_table_rcv;
#X obj 34 412 sel 1;
#X obj 390 81 adc~ 3 4 5 6 7 8 9 10, f 36;
#X obj 516 294 snapshot~;
#X floatatom 516 318 5 0 0 0 - - -;
#X obj 516 374 s mod_amount_rcv;
#X obj 514 348 * 400;
#X obj 664 290 snapshot~;
#X floatatom 664 314 5 0 0 0 - - -;
#X obj 695 49 metro 10;
#X obj 695 26 tgl 15 0 empty empty empty 17 7 0 10 -262144 -1 -1 0
1;
#X obj 108 568 samplerate~;
#X obj 664 370 s mod_index_rcv;
#X obj 662 344 * 3;
#X floatatom 878 325 5 0 0 0 - - -;
#X obj 298 300 snapshot~;
#X floatatom 298 324 5 0 0 0 - - -;
#X obj 292 432 s release_rcv;
#X obj 424 419 snapshot~;
#X floatatom 424 443 5 0 0 0 - - -;
#X floatatom 987 296 5 0 0 0 - - -;
#X obj 1202 298 snapshot~;
#X floatatom 1202 322 5 0 0 0 - - -;
#X obj 1200 352 * 40;
#X obj 1202 379 s pitch_range_rcv;
#X obj 873 404 s crunch_rcv;
#X obj 863 280 snapshot~;
#X obj 991 379 s pitch_offset_rcv;
#X obj 985 326 * 100;
#X obj 979 268 snapshot~;
#X obj 876 355 * 4;
#X obj 372 28 inlet;
#X obj 372 52 switch~;
#X obj 296 204 snapshot~;
#X floatatom 296 228 5 0 0 0 - - -;
#X obj 226 270 s volume_rcv;
#X obj 124 223 s stopnote;
#X obj 109 193 s tramp;
#X obj 80 97 key;
#X obj 75 122 sel 116;
#X msg 75 146 1;
#X obj 134 121 sel 116;
#X obj 139 96 keyup;
#X msg 133 144 0;
#X floatatom 294 404 15 0 0 0 - - -;
#X obj 293 381 exp;
#X obj 293 352 * 11;
#X obj 424 500 s feedback_rcv;
#X obj 423 473 * 2;
#X connect 0 0 7 0;
#X connect 1 0 51 0;
#X connect 1 0 5 0;
#X connect 3 0 2 0;
#X connect 4 0 3 0;
#X connect 4 0 8 0;
#X connect 5 0 6 0;
#X connect 5 1 50 0;
#X connect 7 0 1 0;
#X connect 8 0 2 0;
#X connect 9 0 10 0;
#X connect 10 0 15 0;
#X connect 11 0 9 0;
#X connect 12 0 11 0;
#X connect 15 0 14 0;
#X connect 15 0 13 0;
#X connect 16 0 47 0;
#X connect 16 1 29 0;
#X connect 16 2 32 0;
#X connect 16 3 17 0;
#X connect 16 4 21 0;
#X connect 16 5 40 0;
#X connect 16 6 43 0;
#X connect 16 7 35 0;
#X connect 17 0 18 0;
#X connect 18 0 20 0;
#X connect 20 0 19 0;
#X connect 21 0 22 0;
#X connect 22 0 27 0;
#X connect 23 0 17 0;
#X connect 23 0 29 0;
#X connect 23 0 32 0;
#X connect 23 0 35 0;
#X connect 23 0 21 0;
#X connect 23 0 40 0;
#X connect 23 0 43 0;
#X connect 23 0 47 0;
#X connect 24 0 23 0;
#X connect 27 0 26 0;
#X connect 28 0 44 0;
#X connect 29 0 30 0;
#X connect 30 0 60 0;
#X connect 32 0 33 0;
#X connect 33 0 62 0;
#X connect 34 0 42 0;
#X connect 35 0 36 0;
#X connect 36 0 37 0;
#X connect 37 0 38 0;
#X connect 40 0 28 0;
#X connect 42 0 41 0;
#X connect 43 0 34 0;
#X connect 44 0 39 0;
#X connect 45 0 46 0;
#X connect 45 0 24 0;
#X connect 47 0 48 0;
#X connect 48 0 49 0;
#X connect 52 0 53 0;
#X connect 53 0 54 0;
#X connect 54 0 1 0;
#X connect 55 0 57 0;
#X connect 56 0 55 0;
#X connect 57 0 1 0;
#X connect 58 0 31 0;
#X connect 59 0 58 0;
#X connect 60 0 59 0;
#X connect 62 0 61 0;
