#N canvas 0 25 803 565 10;
#X obj 93 350 dac~;
#X obj 94 233 osc~ 440;
#X obj 94 310 *~ 0.2;
#X text 171 283 click for test beep;
#X floatatom 87 177 5 0 0 0 - - - 0;
#X obj 138 193 * 600;
#X obj 86 143 r slider1;
#X connect 1 0 2 0;
#X connect 2 0 0 0;
#X connect 2 0 0 1;
#X connect 4 0 5 0;
#X connect 5 0 1 0;
#X connect 6 0 4 0;
